<svg height="461pt" viewBox="0 -27 461.971 461" width="461pt" xmlns="http://www.w3.org/2000/svg"><path d="m457.40625 266.214844c-22.503906-41.320313-77.003906-81.585938-77.003906-81.585938v.011719c-13.785156-10.75-29.082032-20.015625-45.792969-27.417969-86.207031-38.179687-183.878906-15.859375-245.476563 48.578125-29.515624 26.773438-66.265624 70.363281-84.921874 132.617188-1.144532 3.8125 2.613281 7.253906 6.277343 5.695312 10.445313-4.445312 29.433594-7.683593 56.347657 6.671875 15.890624 13.730469 34.039062 25.382813 54.234374 34.332032 96.828126 42.882812 208.117188 9.441406 266.507813-74.285157v.015625c.019531-.035156.042969-.070312.0625-.105468 2.621094-3.761719 5.144531-7.613282 7.542969-11.578126 19.933594-26.183593 44.542968-27.597656 57.5-26.082031 3.785156.433594 6.542968-3.523437 4.722656-6.867187zm0 0" fill="#e0ebfc"/><path d="m351.191406 274.773438c0 71.078124-57.621094 128.699218-128.699218 128.699218-71.078126 0-128.699219-57.621094-128.699219-128.699218 0-71.078126 57.621093-128.699219 128.699219-128.699219 71.078124 0 128.699218 57.621093 128.699218 128.699219zm0 0" fill="#6bdddd"/><path d="m313.75 274.773438c0 50.402343-40.855469 91.261718-91.257812 91.261718-50.402344 0-91.261719-40.859375-91.261719-91.261718 0-50.402344 40.859375-91.261719 91.261719-91.261719 50.402343 0 91.257812 40.859375 91.257812 91.261719zm0 0" fill="#ffea92"/><path d="m219.320312 331.949219-.378906-.011719c-17.5625-.488281-31.402344-15.121094-30.914062-32.683594l1.5625-56.355468c.488281-17.5625 15.121094-31.402344 32.683594-30.914063l.378906.007813c17.5625.488281 31.402344 15.121093 30.914062 32.683593l-1.566406 56.359375c-.488281 17.558594-15.117188 31.398438-32.679688 30.914063zm0 0" fill="#4671c6"/><path d="m246.476562 265.898438-.332031-.007813c-10.949219-.304687-19.582031-9.429687-19.277343-20.378906l.5625-20.320313c.304687-10.953125 9.429687-19.582031 20.378906-19.277344l.332031.007813c10.949219.304687 19.578125 9.429687 19.273437 20.378906l-.5625 20.324219c-.304687 10.949219-9.425781 19.578125-20.375 19.273438zm0 0" fill="#e0ebfc"/><path d="m222.585938 407.476562c-1.257813 0-2.519532-.019531-3.78125-.054687-35.433594-.980469-68.359376-15.707031-92.71875-41.457031-24.355469-25.75-37.226563-59.441406-36.246094-94.875.984375-35.433594 15.710937-68.359375 41.460937-92.71875 25.75-24.355469 59.453125-37.21875 94.875-36.242188 35.433594.984375 68.359375 15.707032 92.714844 41.457032 24.359375 25.75 37.230469 59.445312 36.246094 94.875-.984375 35.433593-15.707031 68.359374-41.457031 92.71875-24.832032 23.488281-57.050782 36.296874-91.09375 36.296874zm-.183594-257.402343c-31.992188 0-62.265625 12.035156-85.601563 34.109375-24.199219 22.886718-38.035156 53.832031-38.960937 87.128906-.921875 33.292969 11.171875 64.957031 34.0625 89.15625 22.890625 24.195312 53.832031 38.03125 87.128906 38.957031 33.277344.917969 64.957031-11.171875 89.152344-34.058593 24.199218-22.890626 38.035156-53.832032 38.960937-87.128907.921875-33.292969-11.171875-64.957031-34.0625-89.15625-22.886719-24.199219-53.832031-38.035156-87.125-38.957031-1.1875-.035156-2.375-.050781-3.554687-.050781zm0 0" fill="#3762cc"/><path d="m208.980469 407.722656c-30.132813 0-60.597657-6.140625-89.527344-18.953125-19.976563-8.847656-38.441406-20.507812-54.886719-34.667969-24.820312-13.113281-42.242187-10.679687-52.511718-6.3125-3.117188 1.332032-6.621094.753907-9.140626-1.5-2.546874-2.28125-3.519531-5.738281-2.535156-9.023437 19.148438-63.898437 57.289063-108.304687 85.957032-134.335937 64.355468-67.234376 164.753906-87.070313 249.890624-49.367188 16.53125 7.320312 32.148438 16.65625 46.410157 27.75.046875.03125.09375.0625.140625.097656 2.253906 1.667969 55.46875 41.269532 78.136718 82.886719 1.550782 2.84375 1.386719 6.28125-.425781 8.960937-1.835937 2.71875-5.007812 4.167969-8.265625 3.789063-12.042968-1.402344-35.003906-.101563-53.730468 24.371094-2.300782 3.792969-4.820313 7.652343-7.488282 11.484375-.078125.128906-.160156.246094-.25.363281-42.398437 60.699219-111.140625 94.449219-181.773437 94.457031zm-179.097657-71.421875c10.550782 0 23.515626 2.777344 38.839844 10.949219.261719.140625.507813.308594.734375.503906 15.933594 13.777344 33.84375 25.117188 53.238281 33.703125 93.292969 41.324219 203.316407 10.660157 261.605469-72.914062.007813-.015625.019531-.03125.027344-.042969.011719-.019531.023437-.035156.035156-.046875 2.644531-3.796875 5.136719-7.621094 7.40625-11.367187.074219-.117188.152344-.234376.238281-.347657 21.148438-27.789062 47.390626-29.242187 61.144532-27.632812.378906.042969.59375-.148438.710937-.316407.214844-.320312.082031-.566406.03125-.660156-21.117187-38.777344-71.957031-77.347656-75.65625-80.125-.101562-.0625-.199219-.132812-.292969-.207031-13.808593-10.765625-28.933593-19.824219-44.957031-26.917969-82.097656-36.363281-178.9375-17.203125-240.960937 47.683594-.066406.070312-.136719.136719-.207032.199219-27.925781 25.332031-65.132812 68.589843-83.777343 130.800781-.089844.304688-.019531.558594.203125.761719.300781.265625.5625.152343.675781.105469 5.359375-2.28125 12.359375-4.128907 20.960937-4.128907zm0 0" fill="#3762cc"/><path d="m28.296875 93.054688c-8.207031 11.808593-13.078125 25.980468-13.296875 41.246093-.585938 40.246094 32.433594 74.652344 73.824219 76.757813 45.003906 2.289062 82.234375-32.46875 82.234375-75.671875 0-15.679688-4.90625-30.246094-13.308594-42.335938l-.019531-.027343v-.003907l-58.203125-85.144531c-3.085938-4.515625-9.917969-4.515625-13.003906 0l-58.199219 85.140625c-.003907.007813-.007813.011719-.011719.019531zm0 0" fill="#a4c9ff"/><path d="m93.097656 215.167969c-1.484375 0-2.976562-.039063-4.476562-.113281-43.414063-2.210938-78.238282-38.460938-77.625-80.808594.226562-15.5625 5.066406-30.585938 13.996094-43.445313l.011718-.023437 58.214844-85.164063c2.195312-3.210937 5.859375-5.128906 9.804688-5.128906 3.941406 0 7.605468 1.917969 9.800781 5.128906l58.207031 85.152344c9.175781 13.207031 14.027344 28.632813 14.027344 44.625 0 21.65625-8.773438 41.921875-24.699219 57.058594-15.515625 14.742187-35.703125 22.71875-57.261719 22.71875zm-.074218-206.683594c-1.316407 0-2.484376.601563-3.199219 1.644531l-58.199219 85.144532c-.003906.007812-.039062.050781-.042969.0625-8.027343 11.554687-12.378906 25.050781-12.582031 39.027343-.550781 38.09375 30.863281 70.707031 70.03125 72.703125 21.007812 1.058594 40.839844-6.183594 55.816406-20.417968 14.324219-13.613282 22.210938-31.816407 22.210938-51.257813 0-14.351563-4.355469-28.203125-12.59375-40.054687-.035156-.042969-.082032-.125-.113282-.171876l-58.128906-85.035156c-.714844-1.042968-1.882812-1.644531-3.199218-1.644531zm-64.726563 84.570313h.019531zm0 0" fill="#3762cc"/></svg>